<svg id="smm" xmlns="http://www.w3.org/2000/svg" width="266" height="55" viewBox="0 0 266 55">
  <view id="odn-view" viewBox="0 0 0 0" />
  <view id="fb-view" viewBox="175 0 53 54" />
  <view id="twitter-view" viewBox="245 0 54 54" />
  <view id="vk-view" viewBox="317 0 53 54"/>
  <defs>
    <style>
      .cls-1, .cls-3, .cls-5, .cls-7 {
        fill: none;
        stroke-width: 1px;
      }

      .cls-1 {
        stroke: #3a589b;
      }

      .cls-2 {
        fill: #414594;
      }

      .cls-2, .cls-5, .cls-6, .cls-7, .cls-8 {
        fill-rule: evenodd;
      }

      .cls-3 {
        stroke: #567da4;
      }

      .cls-4 {
        font-size: 20px;
        fill: #416da1;
        font-family: Roboto;
        font-weight: 700;
      }

      .cls-5 {
        stroke: #ef8116;
      }

      .cls-6 {
        fill: #ef8116;
      }

      .cls-7 {
        stroke: #3aaae3;
      }

      .cls-8 {
        fill: #3aaae3;
      }
    </style>
  </defs>
  <g  id="fb">
    <circle data-name="Эллипс 1 копия 4" class="cls-1" cx="97.735" cy="27.625" r="25"/>
    <path class="cls-2" d="M115.313,360.191h2.865v11.43a0.415,0.415,0,0,0,.422.408h4.858a0.414,0.414,0,0,0,.42-0.408V360.245h3.294a0.416,0.416,0,0,0,.418-0.361l0.5-4.208a0.4,0.4,0,0,0-.105-0.318,0.427,0.427,0,0,0-.314-0.137h-3.793v-2.638a1.115,1.115,0,0,1,1.312-1.2h2.481a0.415,0.415,0,0,0,.421-0.409v-3.861a0.415,0.415,0,0,0-.421-0.409h-3.418c-0.024,0-.078,0-0.157,0a6.681,6.681,0,0,0-4.282,1.565,4.268,4.268,0,0,0-1.494,3.869v3.084h-3.008a0.415,0.415,0,0,0-.421.409v4.153A0.415,0.415,0,0,0,115.313,360.191Z" transform="translate(-24.5 -332.5)"/>
  </g>
  <g id="vk">
    <circle id="Эллипс_1_копия_3" data-name="Эллипс 1 копия 3" class="cls-3" cx="239.047" cy="27.625" r="25"/>
    <text id="B" class="cls-4" transform="translate(230.437 37.805) scale(1.469 1.488)">B</text>
  </g>
  <g id="odn">
    <path id="Эллипс_1_копия_6" data-name="Эллипс 1 копия 6" class="cls-5" d="M51.448,333A26.8,26.8,0,1,1,25,359.8,26.626,26.626,0,0,1,51.448,333Z" transform="translate(-24.5 -332.5)"/>
    <path id="Forma_1" data-name="Forma 1" class="cls-6" d="M50.679,364.016a9.312,9.312,0,0,1-5.073-1.872,6.927,6.927,0,0,1-.536-0.454,1.521,1.521,0,0,1-.2-2.116,1.42,1.42,0,0,1,1.92-.446,3.066,3.066,0,0,1,.419.256,8.091,8.091,0,0,0,9.22.088,2.476,2.476,0,0,1,.9-0.48,1.391,1.391,0,0,1,1.615.666,1.449,1.449,0,0,1-.1,1.859,7.427,7.427,0,0,1-2.682,1.791,12.171,12.171,0,0,1-3.044.7c0.157,0.177.23,0.264,0.328,0.366,1.41,1.463,2.825,2.921,4.229,4.389a1.481,1.481,0,0,1,.315,1.7,1.666,1.666,0,0,1-1.565,1.01,1.507,1.507,0,0,1-.991-0.525c-1.063-1.106-2.148-2.192-3.189-3.319-0.3-.328-0.449-0.265-0.717.019-1.069,1.139-2.157,2.26-3.251,3.375a1.335,1.335,0,0,1-1.646.305,1.729,1.729,0,0,1-.96-1.585,1.608,1.608,0,0,1,.515-1.064q2.092-2.159,4.177-4.326C50.459,364.266,50.544,364.165,50.679,364.016ZM51.834,359a6.407,6.407,0,1,1,6.231-6.321A6.309,6.309,0,0,1,51.834,359Zm3.076-6.41a3.031,3.031,0,1,0-3.011,3.141A3.07,3.07,0,0,0,54.911,352.592Z" transform="translate(-24.5 -332.5)"/>
  </g>
  <g id="twitter">
    <circle id="Эллипс_1_копия_5" data-name="Эллипс 1 копия 5" class="cls-7" cx="170" cy="27.625" r="25"/>
    <path class="cls-8" d="M204.139,353.089a8.491,8.491,0,0,1-1.064.385,4.653,4.653,0,0,0,.958-1.671,0.35,0.35,0,0,0-.117-0.383,0.355,0.355,0,0,0-.4-0.027,8.4,8.4,0,0,1-2.476.97,4.774,4.774,0,0,0-3.307-1.336,4.71,4.71,0,0,0-4.724,4.686,4.837,4.837,0,0,0,.039.6,12.119,12.119,0,0,1-8.3-4.367,0.356,0.356,0,0,0-.582.045,4.661,4.661,0,0,0,.485,5.394,4.162,4.162,0,0,1-.633-0.281,0.358,0.358,0,0,0-.349,0,0.35,0.35,0,0,0-.177.3c0,0.021,0,.041,0,0.063A4.692,4.692,0,0,0,185.8,361.5c-0.12-.011-0.24-0.028-0.359-0.051a0.358,0.358,0,0,0-.333.112,0.351,0.351,0,0,0-.072.341,4.706,4.706,0,0,0,3.461,3.141,8.408,8.408,0,0,1-4.467,1.264,8.774,8.774,0,0,1-1-.057,0.351,0.351,0,0,0-.233.645,12.816,12.816,0,0,0,6.888,2,12.291,12.291,0,0,0,9.5-4.137,13.045,13.045,0,0,0,3.291-8.545q0-.193-0.006-0.387a9.165,9.165,0,0,0,2.114-2.221,0.35,0.35,0,0,0-.024-0.422A0.357,0.357,0,0,0,204.139,353.089Z" transform="translate(-24.5 -332.5)"/>
  </g>
</svg>
