<svg id="smm" xmlns="http://www.w3.org/2000/svg" width="266" height="55" viewBox="0 0 266 55"><view id="odn-view" viewBox="0 0 0 0"/><view id="fb-view" viewBox="175 0 53 54"/><view id="twitter-view" viewBox="245 0 54 54"/><view id="vk-view" viewBox="317 0 53 54"/><g id="fb"><circle data-name="Эллипс 1 копия 4" cx="97.735" cy="27.625" r="25" stroke="#3a589b" fill="none"/><path d="M115.313 360.191h2.865v11.43a.415.415 0 0 0 .422.408h4.858a.414.414 0 0 0 .42-.408v-11.376h3.294a.416.416 0 0 0 .418-.361l.5-4.208a.4.4 0 0 0-.105-.318.427.427 0 0 0-.314-.137h-3.793v-2.638a1.115 1.115 0 0 1 1.312-1.2h2.481a.415.415 0 0 0 .421-.409v-3.861a.415.415 0 0 0-.421-.409h-3.575a6.681 6.681 0 0 0-4.282 1.565 4.268 4.268 0 0 0-1.494 3.869v3.084h-3.008a.415.415 0 0 0-.421.409v4.153a.415.415 0 0 0 .422.407z" transform="translate(-24.5 -332.5)" fill-rule="evenodd" fill="#414594"/></g><g id="vk"><circle id="Эллипс_1_копия_3" data-name="Эллипс 1 копия 3" cx="239.047" cy="27.625" r="25" stroke="#567da4" fill="none" stroke-width="1"/><text id="B" transform="matrix(1.469 0 0 1.488 230.437 37.805)" font-size="20" fill="#416da1" font-family="Roboto" font-weight="700">B</text></g><g id="odn" fill-rule="evenodd"><path id="Эллипс_1_копия_6" data-name="Эллипс 1 копия 6" d="M26.948.5A26.8 26.8 0 1 1 .5 27.3 26.626 26.626 0 0 1 26.948.5z" stroke="#ef8116" fill="none" stroke-width="1"/><path id="Forma_1" data-name="Forma 1" d="M50.679 364.016a9.312 9.312 0 0 1-5.073-1.872 6.927 6.927 0 0 1-.536-.454 1.521 1.521 0 0 1-.2-2.116 1.42 1.42 0 0 1 1.92-.446 3.066 3.066 0 0 1 .419.256 8.091 8.091 0 0 0 9.22.088 2.476 2.476 0 0 1 .9-.48 1.391 1.391 0 0 1 1.615.666 1.449 1.449 0 0 1-.1 1.859 7.427 7.427 0 0 1-2.682 1.791 12.171 12.171 0 0 1-3.044.7c.157.177.23.264.328.366 1.41 1.463 2.825 2.921 4.229 4.389a1.481 1.481 0 0 1 .315 1.7 1.666 1.666 0 0 1-1.565 1.01 1.507 1.507 0 0 1-.991-.525c-1.063-1.106-2.148-2.192-3.189-3.319-.3-.328-.449-.265-.717.019a211.225 211.225 0 0 1-3.251 3.375 1.335 1.335 0 0 1-1.646.305 1.729 1.729 0 0 1-.96-1.585 1.608 1.608 0 0 1 .515-1.064q2.092-2.159 4.177-4.326c.096-.087.181-.188.316-.337zM51.834 359a6.407 6.407 0 1 1 6.231-6.321A6.309 6.309 0 0 1 51.834 359zm3.076-6.41a3.031 3.031 0 1 0-3.011 3.141 3.07 3.07 0 0 0 3.012-3.139z" transform="translate(-24.5 -332.5)" fill="#ef8116"/></g><g id="twitter" fill-rule="evenodd"><circle id="Эллипс_1_копия_5" data-name="Эллипс 1 копия 5" cx="170" cy="27.625" r="25" stroke="#3aaae3" fill="none" stroke-width="1"/><path d="M204.139 353.089a8.491 8.491 0 0 1-1.064.385 4.653 4.653 0 0 0 .958-1.671.35.35 0 0 0-.117-.383.355.355 0 0 0-.4-.027 8.4 8.4 0 0 1-2.476.97 4.774 4.774 0 0 0-3.307-1.336 4.71 4.71 0 0 0-4.724 4.686 4.837 4.837 0 0 0 .039.6 12.119 12.119 0 0 1-8.3-4.367.356.356 0 0 0-.582.045 4.661 4.661 0 0 0 .485 5.394 4.162 4.162 0 0 1-.633-.281.358.358 0 0 0-.349 0 .35.35 0 0 0-.177.3v.063a4.692 4.692 0 0 0 2.308 4.033 3.648 3.648 0 0 1-.359-.051.358.358 0 0 0-.333.112.351.351 0 0 0-.072.341 4.706 4.706 0 0 0 3.461 3.141 8.408 8.408 0 0 1-4.467 1.264 8.774 8.774 0 0 1-1-.057.351.351 0 0 0-.233.645 12.816 12.816 0 0 0 6.888 2 12.291 12.291 0 0 0 9.5-4.137 13.045 13.045 0 0 0 3.291-8.545q0-.193-.006-.387a9.165 9.165 0 0 0 2.114-2.221.35.35 0 0 0-.024-.422.357.357 0 0 0-.421-.094z" transform="translate(-24.5 -332.5)" fill="#3aaae3"/></g></svg>